<?xml version="1.0" encoding="UTF-8"?>
<!DOCTYPE svg PUBLIC "-//W3C//DTD SVG 1.1//EN" "http://www.w3.org/Graphics/SVG/1.1/DTD/svg11.dtd">
<svg xmlns="http://www.w3.org/2000/svg" version="1.1" width="150px" height="150px" style="shape-rendering:geometricPrecision; text-rendering:geometricPrecision; image-rendering:optimizeQuality; fill-rule:evenodd; clip-rule:evenodd" xmlns:xlink="http://www.w3.org/1999/xlink">
<g><path style="opacity:0.984" fill="#fef100" d="M 55.5,83.5 C 57.0269,83.573 58.0269,82.9063 58.5,81.5C 62.8361,79.162 67.1694,76.8287 71.5,74.5C 72.7562,74.5386 73.7562,74.0386 74.5,73C 72.5932,71.878 70.5932,71.0447 68.5,70.5C 57.1544,65.393 46.1544,59.7263 35.5,53.5C 34.3406,51.7497 32.674,50.7497 30.5,50.5C 24.1201,49.5152 22.9534,46.5152 27,41.5C 45.7968,18.7288 69.2968,12.2288 97.5,22C 127.928,38.928 137.761,64.0947 127,97.5C 112.102,126.491 88.602,136.991 56.5,129C 42.0053,124.078 31.0053,114.912 23.5,101.5C 33.9278,95.0715 44.5945,89.0715 55.5,83.5 Z"/></g>
<g><path style="opacity:0.596" fill="#fab6fe" d="M 30.5,50.5 C 32.674,50.7497 34.3406,51.7497 35.5,53.5C 33.326,53.2503 31.6594,52.2503 30.5,50.5 Z"/></g>
<g><path style="opacity:0.298" fill="#f5aeff" d="M 68.5,70.5 C 70.5932,71.0447 72.5932,71.878 74.5,73C 73.7562,74.0386 72.7562,74.5386 71.5,74.5C 70.7888,72.9699 69.7888,71.6366 68.5,70.5 Z"/></g>
<g><path style="opacity:0.388" fill="#fd9efc" d="M 58.5,81.5 C 58.0269,82.9063 57.0269,83.573 55.5,83.5C 55.9731,82.0937 56.9731,81.427 58.5,81.5 Z"/></g>
</svg>
